<svg width="44" height="44" xmlns="http://www.w3.org/2000/svg"><g fill="none"><g opacity=".45" fill="#274B72"><path d="M12.116 35.4c2.847 2.393 6.435 3.711 10.104 3.711 8.864 0 16.076-7.493 16.076-16.704 0-9.21-7.212-16.703-16.076-16.703-3.669 0-7.257 1.318-10.104 3.71-2.805 2.358-4.785 5.66-5.576 9.295-.104.475.183.947.64 1.054.457.108.911-.19 1.014-.665 1.49-6.849 7.258-11.632 14.026-11.632 7.929 0 14.38 6.703 14.38 14.941 0 8.239-6.451 14.942-14.38 14.942-6.768 0-12.535-4.784-14.026-11.632-.103-.475-.557-.773-1.014-.665-.457.107-.744.579-.64 1.054.79 3.636 2.771 6.936 5.576 9.294z"/><path d="M42.247 13.381a.86.86 0 00-1.581.674A20.15 20.15 0 0142.28 22c0 11.183-9.098 20.281-20.281 20.281-11.183 0-20.281-9.098-20.281-20.281C1.719 10.817 10.817 1.719 22 1.719c2.757 0 5.43.543 7.945 1.615a.86.86 0 10.674-1.58A21.857 21.857 0 0022 0 21.856 21.856 0 006.444 6.444 21.856 21.856 0 000 22a21.857 21.857 0 006.444 15.556A21.856 21.856 0 0022 44a21.856 21.856 0 0015.556-6.444A21.856 21.856 0 0044 22c0-2.99-.59-5.889-1.753-8.619z"/><path d="M31.788 6.908h3.647v3.702c0 .44.369.797.824.797a.811.811 0 00.825-.797V6.908h3.647a.811.811 0 00.825-.797c0-.44-.37-.797-.825-.797h-3.647V1.612c0-.44-.37-.797-.825-.797a.811.811 0 00-.824.797v3.702h-3.647a.811.811 0 00-.825.797c0 .44.37.797.825.797zM7.333 22.407c0-.673-.549-1.222-1.222-1.222-.673 0-1.222.55-1.222 1.222 0 .674.549 1.223 1.222 1.223.673 0 1.222-.55 1.222-1.223z"/></g><path d="M17.352 27.716V14.858h-1.568l-3.43 1.094.475 1.824 2.298-.638v10.578h2.225zm7.425.182c2.79 0 4.87-1.422 4.87-3.702 0-1.55-.912-2.462-2.298-3.1 1.076-.566 1.86-1.423 1.86-2.846 0-2.006-1.879-3.483-4.432-3.483-2.553 0-4.432 1.495-4.432 3.447 0 1.459.784 2.316 1.86 2.881-1.44.602-2.298 1.569-2.298 3.119 0 2.225 2.08 3.684 4.87 3.684zm0-7.55c-1.313 0-2.28-.785-2.28-1.897 0-1.003.912-1.806 2.28-1.806 1.368 0 2.28.803 2.28 1.788 0 1.13-.967 1.915-2.28 1.915zm0 5.672c-1.678 0-2.681-.876-2.681-1.915 0-1.204 1.167-1.97 2.681-1.97s2.681.766 2.681 1.933c0 1.094-1.003 1.952-2.681 1.952z" fill="#9EAEC0"/></g></svg>