<svg width="207" height="145" xmlns="http://www.w3.org/2000/svg" xmlns:xlink="http://www.w3.org/1999/xlink"><defs><filter x="-54.5%" y="-105.3%" width="217.1%" height="352.6%" filterUnits="objectBoundingBox" id="a"><feOffset dx="5" dy="12" in="SourceAlpha" result="shadowOffsetOuter1"/><feGaussianBlur stdDeviation="22" in="shadowOffsetOuter1" result="shadowBlurOuter1"/><feColorMatrix values="0 0 0 0 0.473643924 0 0 0 0 0.56423988 0 0 0 0 0.713456748 0 0 0 0.378359921 0" in="shadowBlurOuter1"/></filter><rect id="b" x="0" y="0" width="123" height="57" rx="28.5"/></defs><g fill="none" fill-rule="evenodd"><g transform="translate(37 32)"><use fill="#000" filter="url(#a)" xlink:href="#b"/><use fill="#FFF" xlink:href="#b"/></g><g transform="translate(63.411 46.682)"><path d="M.309 20.99V8.066h3.263v4.914l3.615-4.914h3.682L6.55 13.855l4.619 7.134H7.42l-2.945-4.75-.904 1.02v3.73H.309zm16.735-3.04c.38 0 .703-.091.97-.273a2.09 2.09 0 00.653-.72c.168-.296.29-.64.369-1.027.078-.389.117-.795.117-1.22V8.067h3.263v6.643a9.61 9.61 0 01-.318 2.52c-.212.784-.541 1.46-.987 2.03a4.718 4.718 0 01-1.682 1.347c-.675.328-1.47.491-2.385.491-.948 0-1.76-.172-2.435-.518a4.745 4.745 0 01-1.665-1.393 5.79 5.79 0 01-.954-2.029 9.671 9.671 0 01-.301-2.448V8.067h3.263v6.643c0 .425.04.834.117 1.229.078.394.201.74.368 1.037.168.297.383.534.645.71.262.176.583.264.962.264zm10.51-3.313v6.352H24.29V8.067h2.544l4.77 6.57v-6.57h3.263V20.99h-2.594l-4.72-6.352z" fill="#183784"/><ellipse fill="#183784" cx="55.849" cy="13.652" rx="13.577" ry="13.652"/><ellipse fill="#183784" cx="38.57" cy="20.478" rx="1.234" ry="1.241"/><path d="M51.033 17.95c.402 0 .745-.091 1.03-.273.283-.182.513-.422.69-.72.178-.296.308-.64.39-1.027.084-.389.125-.795.125-1.22V8.067h3.458v6.643a9.1 9.1 0 01-.337 2.52 5.521 5.521 0 01-1.046 2.03 4.96 4.96 0 01-1.782 1.347c-.716.328-1.558.491-2.528.491-1.004 0-1.865-.172-2.58-.518a4.97 4.97 0 01-1.765-1.393 5.653 5.653 0 01-1.01-2.029 9.156 9.156 0 01-.32-2.448V8.067h3.459v6.643c0 .425.041.834.124 1.229.083.394.213.74.39 1.037.177.297.405.534.683.71.278.176.617.264 1.02.264zm6.83.487l5.363-7.25h-5.12v-3.12h8.755v2.661l-5.04 7.25h5.137v3.12h-9.095v-2.66z" fill="#FFF"/></g></g></svg>